<?xml version="1.0" encoding="UTF-8" standalone="no"?>
<!DOCTYPE svg PUBLIC "-//W3C//DTD SVG 1.1//EN" "http://www.w3.org/Graphics/SVG/1.1/DTD/svg11.dtd">
<svg width="100%" height="100%" viewBox="0 0 16 16" version="1.1" xmlns="http://www.w3.org/2000/svg" xmlns:xlink="http://www.w3.org/1999/xlink" xml:space="preserve" xmlns:serif="http://www.serif.com/" style="fill-rule:evenodd;clip-rule:evenodd;stroke-linecap:round;stroke-linejoin:round;stroke-miterlimit:1.5;">
    <rect id="Artboard1" x="0" y="0" width="16" height="16" style="fill:none;"/>
    <clipPath id="_clip1">
        <rect id="Artboard11" serif:id="Artboard1" x="0" y="0" width="16" height="16"/>
    </clipPath>
    <g clip-path="url(#_clip1)">
        <g transform="matrix(0.9375,0,0,0.9375,-0.4375,-0.4375)">
            <circle cx="9" cy="9" r="8" style="fill:none;stroke:rgb(219,239,193);stroke-width:1.07px;"/>
        </g>
        <g transform="matrix(1,0,0,1,0.5,0.5)">
            <path d="M8,3.25C8,3.112 7.888,3 7.75,3L7.25,3C7.112,3 7,3.112 7,3.25L7,11.75C7,11.888 7.112,12 7.25,12L7.75,12C7.888,12 8,11.888 8,11.75L8,3.25Z" style="fill:rgb(219,239,193);"/>
        </g>
        <g transform="matrix(6.12323e-17,1,-1,6.12323e-17,15.5,0.5)">
            <path d="M8,3.25C8,3.112 7.888,3 7.75,3L7.25,3C7.112,3 7,3.112 7,3.25L7,11.75C7,11.888 7.112,12 7.25,12L7.75,12C7.888,12 8,11.888 8,11.75L8,3.25Z" style="fill:rgb(219,239,193);"/>
        </g>
    </g>
</svg>
